<svg height="20" viewBox="0 0 20 20" width="20" xmlns="http://www.w3.org/2000/svg"><path d="m18.8961111 0h-17.79222221c-.60972222 0-1.10388889.49416667-1.10388889 1.10388889v17.79250001c0 .6094444.49416667 1.1036111 1.10388889 1.1036111h9.57861111v-7.745h-2.60638889v-3.01833333h2.60638889v-2.22611111c0-2.58333334 1.5777778-3.98972223 3.8822222-3.98972223 1.1038889 0 2.0525.08194445 2.3291667.11888889v2.69972222l-1.5983333.00083334c-1.2533334 0-1.4958334.59555555-1.4958334 1.46944444v1.92722222h2.9888889l-.3891667 3.01833336h-2.5997222v7.7447222h5.0966667c.6094444 0 1.1036111-.4941667 1.1036111-1.1038889v-17.79222221c0-.60972222-.4941667-1.10388889-1.1038889-1.10388889z" fill="#555" fill-rule="evenodd"/></svg>