<svg height="20" viewBox="0 0 20 20" width="20" xmlns="http://www.w3.org/2000/svg"><path d="m20 3.89414472c-.7358155.32114549-1.526434.53822552-2.3565316.63564306.84698-.49987216 1.4978638-1.29148556 1.8038259-2.2342112-.7926964.46279724-1.6711038.79928407-2.6053531.97980056-.7482825-.7844541-1.8147345-1.27537714-2.9949482-1.27537714-2.2658858 0-4.10321678 1.80823319-4.10321678 4.03937612 0 .31628739.03636222.62490412.10648935.92073638-3.41025674-.1684991-6.43351557-1.77678343-8.45733283-4.22091536-.35323299.59677831-.55556277 1.29097417-.55556277 2.03093838 0 1.40143185.72438736 2.63743288 1.82538343 3.36205574-.67244133-.0212222-1.30514396-.20301714-1.85836915-.50524163-.00051947.01687548-.00051947.03349527-.00051947.05088213 0 1.95653285 1.41423062 3.58910764 3.29104061 3.96062384-.34414243.0917924-.70646598.1413961-1.08073711.1413961-.26466501 0-.52153812-.0250575-.77217771-.07236.52205758 1.604449 2.03732322 2.7726924 3.83283768 2.8054206-1.40436087 1.083099-3.17338285 1.7292253-5.09590535 1.7292253-.33115593 0-.65763672-.018921-.9789229-.0565073 1.81577341 1.1459984 3.9725725 1.8143697 6.28962508 1.8143697 7.54723842 0 11.67435032-6.1546919 11.67435032-11.49194579 0-.17489134-.0041557-.34952698-.0119476-.52313987.8023064-.56916389 1.4981235-1.28074661 2.0479722-2.09076962z" fill="#555" fill-rule="evenodd"/></svg>